# xmcd CD database file
#
# Track frame offsets:
#	150
#	40350
#	70125
#	93525
#	122025
#	149840
#	172790
#	204890
#	215502
#
# Disc length: 3425 seconds
#
# Revision: 0
# Processed by: cddbd v1.5.2PL0 Copyright (c) Steve Scherf et al.
# Submitted via: CDex 1.70beta2
#
DISCID=840d5f09
DTITLE=Satoko Fujii - Desert Ship (ma-do)
DYEAR=2010
DGENRE=Jazz
TTITLE0=February ~ Locomotive ~ February
TTITLE1=Desert Ship
TTITLE2=Nile River
TTITLE3=Ripple Mark
TTITLE4=Sunset In The Desert
TTITLE5=Pluto
TTITLE6=While You Were Sleeping
TTITLE7=Capillaries
TTITLE8=Vapour Trail
EXTD=YEAR: 2010
EXTT0=
EXTT1=
EXTT2=
EXTT3=
EXTT4=
EXTT5=
EXTT6=
EXTT7=
EXTT8=
PLAYORDER=
